<?xml version="1.0" encoding="iso-8859-1"?>
<!-- Generator: Adobe Illustrator 16.0.0, SVG Export Plug-In . SVG Version: 6.00 Build 0)  -->
<!DOCTYPE svg PUBLIC "-//W3C//DTD SVG 1.1//EN" "http://www.w3.org/Graphics/SVG/1.1/DTD/svg11.dtd">
<svg version="1.1" id="Ebene_1" xmlns="http://www.w3.org/2000/svg" xmlns:xlink="http://www.w3.org/1999/xlink" x="0px" y="0px"
	 width="50px" height="50px" viewBox="0 0 50 50" style="enable-background:new 0 0 50 50;" xml:space="preserve">
<g>
	<path style="fill:#FFFFFF;" d="M37.559,34.373c-0.738,0.22-1.324,0.295-2.09,0.295c-6.293,0-15.541-21.996-15.541-29.316
		c0-2.696,0.642-3.597,1.542-4.366C13.765,1.884,4.518,4.708,1.562,8.306c-0.641,0.899-1.026,2.31-1.026,4.108
		c0,11.431,12.201,37.37,20.806,37.37C25.321,49.784,32.035,43.234,37.559,34.373L37.559,34.373z"/>
	<path style="fill:#FFFFFF;" d="M33.537,0.215c7.963,0,15.928,1.285,15.928,5.778c0,9.12-5.779,20.163-8.73,20.163
		c-5.266,0-11.816-14.639-11.816-21.961C28.918,0.857,30.201,0.215,33.537,0.215z"/>
</g>
</svg>
